# xmcd CD database file generated by Grip 3.0.0
# 
# Track frame offsets:
#       150
#       18559
#       34567
#       52739
#       73962
#       83879
#       101635
#       109184
#       126526
#       141015
#       160369
#       175792
# 
# Disc length: 2650 seconds
# 
# Revision: 3
# Processed by: cddbd v1.4PL0 Copyright (c) Steve Scherf et al.
# Submitted via: Grip 3.0.0
# 
DISCID=a30a580c
DTITLE=Fragments of freedom - Morcheeba
DYEAR=1900
DGENRE=Blues
TTITLE0=World looking in
TTITLE1=Rome wasn't built in a day
TTITLE2=Love is rare
TTITLE3=Let it go
TTITLE4=A well deserved break
TTITLE5=Love sweet love (feat. mr complex)
TTITLE6=In the hands of the gods (feat. biz markie)
TTITLE7=Shallow end
TTITLE8=Be yourself
TTITLE9=Coming down gently
TTITLE10=Good girl down (feat. bahamadia)
TTITLE11=Fragments of freedom
EXTD=
EXTT0=
EXTT1=
EXTT2=
EXTT3=
EXTT4=
EXTT5=
EXTT6=
EXTT7=
EXTT8=
EXTT9=
EXTT10=
EXTT11=
PLAYORDER=
